<svg width="323" height="158" viewBox="0 0 323 158" fill="none" xmlns="http://www.w3.org/2000/svg">
<g clip-path="url(#clip0)">
<path d="M51.2863 31L26.6003 44.3219C27.0225 45.046 27.2944 45.8471 27.4001 46.6778C27.5058 47.5085 27.443 48.3518 27.2156 49.1579C26.9881 49.964 26.6005 50.7164 26.0759 51.3705C25.5512 52.0246 24.9001 52.5671 24.1611 52.9659C23.4221 53.3647 22.6103 53.6117 21.7737 53.6922C20.9372 53.7726 20.0929 53.685 19.291 53.4345C18.4891 53.1839 17.7458 52.7755 17.1052 52.2335C16.4646 51.6915 15.9397 51.0269 15.5616 50.2791L7.14441 54.8215L28.9476 94.9256L73.0895 71.1041L51.2863 31Z" fill="#F2F2F2"/>
<path d="M20.7947 52.5412C23.6092 52.5412 25.8909 50.268 25.8909 47.4639C25.8909 44.6597 23.6092 42.3865 20.7947 42.3865C17.9801 42.3865 15.6985 44.6597 15.6985 47.4639C15.6985 50.268 17.9801 52.5412 20.7947 52.5412Z" fill="#6C63FF"/>
<path d="M113.273 138.362L139.964 129.688C139.68 128.9 139.557 128.063 139.603 127.227C139.65 126.391 139.864 125.573 140.233 124.821C140.603 124.068 141.12 123.398 141.754 122.849C142.389 122.299 143.127 121.883 143.926 121.623C144.725 121.363 145.568 121.266 146.406 121.337C147.243 121.408 148.058 121.646 148.801 122.036C149.545 122.426 150.202 122.962 150.734 123.61C151.266 124.258 151.663 125.006 151.899 125.809L161 122.851L146.804 79.4906L99.0772 95.0009L113.273 138.362Z" fill="#F2F2F2"/>
<path d="M146.243 132.717C149.057 132.717 151.339 130.443 151.339 127.639C151.339 124.835 149.057 122.562 146.243 122.562C143.428 122.562 141.147 124.835 141.147 127.639C141.147 130.443 143.428 132.717 146.243 132.717Z" fill="#6C63FF"/>
<path d="M147.294 54.7885H24.0625V110.568H147.294V54.7885Z" fill="#3F3D56"/>
<path d="M145.261 56.814H26.0956V107.452H145.261V56.814Z" fill="white"/>
<path d="M133.142 105.037H121.569V108.932H133.142V105.037Z" fill="#3F3D56"/>
<path d="M120.943 107.997H112.499V109.088H120.943V107.997Z" fill="#6C63FF"/>
<path d="M35.7915 75.9784H81.2997L88.3552 79.4029L99.5968 84.8594L106.947 71.1483H127.746" stroke="#3F3D56" stroke-width="2" stroke-miterlimit="10"/>
<path d="M53.6858 75.9784L57.0598 83.9246H65.3482" stroke="#3F3D56" stroke-width="2" stroke-miterlimit="10"/>
<path d="M66.3346 75.9784L77.8591 69.7461H85.9912" stroke="#3F3D56" stroke-width="2" stroke-miterlimit="10"/>
<path d="M53.6194 77.3806C54.3967 77.3806 55.0269 76.7528 55.0269 75.9783C55.0269 75.2039 54.3967 74.576 53.6194 74.576C52.8421 74.576 52.2119 75.2039 52.2119 75.9783C52.2119 76.7528 52.8421 77.3806 53.6194 77.3806Z" fill="#6C63FF"/>
<path d="M66.7559 77.3806C67.5332 77.3806 68.1633 76.7528 68.1633 75.9783C68.1633 75.2039 67.5332 74.576 66.7559 74.576C65.9785 74.576 65.3484 75.2039 65.3484 75.9783C65.3484 76.7528 65.9785 77.3806 66.7559 77.3806Z" fill="#6C63FF"/>
<path d="M88.337 79.4061L89.2753 93.2731H97.4074" stroke="#3F3D56" stroke-width="2" stroke-miterlimit="10"/>
<path d="M103.999 76.6473L95.0616 69.7461H103.506" stroke="#3F3D56" stroke-width="2" stroke-miterlimit="10"/>
<path d="M118.762 71.1483L127.433 78.0039H135.565" stroke="#3F3D56" stroke-width="2" stroke-miterlimit="10"/>
<path d="M88.337 80.8085C89.1144 80.8085 89.7445 80.1806 89.7445 79.4062C89.7445 78.6317 89.1144 78.0039 88.337 78.0039C87.5597 78.0039 86.9296 78.6317 86.9296 79.4062C86.9296 80.1806 87.5597 80.8085 88.337 80.8085Z" fill="#6C63FF"/>
<path d="M118.676 72.5506C119.453 72.5506 120.083 71.9228 120.083 71.1484C120.083 70.3739 119.453 69.7461 118.676 69.7461C117.898 69.7461 117.268 70.3739 117.268 71.1484C117.268 71.9228 117.898 72.5506 118.676 72.5506Z" fill="#6C63FF"/>
<path d="M103.976 78.0039C104.753 78.0039 105.383 77.3761 105.383 76.6016C105.383 75.8272 104.753 75.1993 103.976 75.1993C103.198 75.1993 102.568 75.8272 102.568 76.6016C102.568 77.3761 103.198 78.0039 103.976 78.0039Z" fill="#6C63FF"/>
<path d="M57.2163 85.171H65.3484" stroke="#3F3D56" stroke-width="2" stroke-miterlimit="10"/>
<path d="M132.601 45.0672C133.875 45.0672 134.908 44.0379 134.908 42.7682C134.908 41.4984 133.875 40.4691 132.601 40.4691C131.326 40.4691 130.293 41.4984 130.293 42.7682C130.293 44.0379 131.326 45.0672 132.601 45.0672Z" stroke="#3F3D56" stroke-width="2" stroke-miterlimit="10"/>
<path d="M29.7706 151C42.8988 151 53.5412 149.047 53.5412 146.637C53.5412 144.228 42.8988 142.275 29.7706 142.275C16.6425 142.275 6 144.228 6 146.637C6 149.047 16.6425 151 29.7706 151Z" fill="#F2F2F2"/>
<path d="M46.0956 107.916L41.8549 110.048L42.1293 110.592L46.3699 108.461L46.0956 107.916Z" fill="#6C63FF"/>
<path d="M45.4061 103.951L45.2156 105.09C45.2156 105.09 45.5013 112.967 43.4057 110.5C41.31 108.032 42.7389 104.71 42.7389 104.71L43.3104 103.761L45.4061 103.951Z" fill="#FBBEBE"/>
<path d="M33.2132 67.5074C33.2132 67.5074 32.8321 71.4935 32.6416 71.6833C32.4511 71.8731 35.4993 75.4795 35.4993 75.4795L38.1665 73.012C38.1665 73.012 37.976 69.4056 38.5476 68.6463C39.1191 67.8871 33.2132 67.5074 33.2132 67.5074Z" fill="#FBBEBE"/>
<path opacity="0.1" d="M33.2132 67.5074C33.2132 67.5074 32.8321 71.4935 32.6416 71.6833C32.4511 71.8731 35.4993 75.4795 35.4993 75.4795L38.1665 73.012C38.1665 73.012 37.976 69.4056 38.5476 68.6463C39.1191 67.8871 33.2132 67.5074 33.2132 67.5074Z" fill="black"/>
<path d="M26.1642 140.205V143.622L24.8305 143.811L22.9254 143.242L23.4968 139.635L26.1642 140.205Z" fill="#3F3D56"/>
<path d="M24.4495 141.913C24.4495 141.913 23.878 140.395 22.9254 140.585C21.9728 140.774 21.7823 141.913 21.7823 141.913C21.7823 141.913 21.0203 144.76 19.8772 145.71C18.7341 146.659 17.591 149.126 19.8772 149.506C22.1633 149.885 24.0685 148.936 24.0685 148.747C24.0685 148.557 24.64 147.418 25.5926 147.228C26.5452 147.038 27.3072 146.848 27.3072 146.089C27.3072 145.33 26.7357 144.571 26.7357 144.571C26.7357 144.571 26.5452 140.97 26.1641 141.442C25.9006 141.814 25.707 142.231 25.5926 142.673L24.4495 141.913Z" fill="#2F2E41"/>
<path d="M34.3563 138.497L33.5942 141.344L35.4993 141.724L36.4519 140.775L36.6424 138.307L34.3563 138.497Z" fill="#3F3D56"/>
<path d="M34.1658 140.964C34.1658 140.964 34.9279 140.395 35.3089 140.395H35.8804C35.8804 140.395 35.8804 139.066 36.833 139.066C37.7856 139.066 37.5951 140.015 37.5951 140.015C37.5951 140.015 39.6907 143.242 40.2623 143.811C40.8338 144.381 43.882 146.089 41.4054 146.848C38.9287 147.608 37.214 147.608 36.0709 146.279C36.0709 146.279 34.9279 145.71 34.1658 145.71C33.4037 145.71 32.4512 145.33 32.4512 144.76C32.4512 144.191 33.0227 143.052 33.0227 143.052C33.0227 143.052 33.4037 139.636 33.5943 140.015C33.7848 140.395 34.1658 140.964 34.1658 140.964Z" fill="#2F2E41"/>
<path d="M25.9736 94.8402V101.104C25.9736 101.104 23.8779 113.252 23.8779 117.238C23.8779 121.224 20.6392 140.205 22.1633 140.585C23.6874 140.964 27.3072 141.534 27.4977 140.964C27.6882 140.395 29.0218 122.363 29.2123 122.173C29.4029 121.983 33.4036 106.988 33.4036 106.988L34.1657 107.178L34.5467 124.261C34.5467 124.261 32.6416 139.636 33.5942 139.636C34.5467 139.636 38.5475 139.446 38.5475 138.307C38.5475 137.168 40.6432 116.099 40.6432 116.099C40.6432 116.099 43.1199 99.3957 42.1673 97.6874C41.2147 95.9791 41.2147 95.03 41.2147 95.03L25.9736 94.8402Z" fill="#2F2E41"/>
<path d="M36.3567 70.4496C38.461 70.4496 40.167 68.75 40.167 66.6534C40.167 64.5568 38.461 62.8572 36.3567 62.8572C34.2523 62.8572 32.5464 64.5568 32.5464 66.6534C32.5464 68.75 34.2523 70.4496 36.3567 70.4496Z" fill="#FBBEBE"/>
<path d="M35.4993 73.2018C35.4993 73.2018 33.1179 71.2088 32.9273 70.4496C32.9273 70.4496 31.689 71.6834 31.689 71.8732C31.689 72.063 26.3546 72.6324 25.021 74.1509C23.6874 75.6694 22.5443 78.8962 22.5443 78.8962L25.7831 84.9701C25.7831 84.9701 25.9736 88.3867 25.9736 88.7663C25.9736 89.146 25.021 95.2199 25.402 95.4097C25.7831 95.5995 29.5933 97.4976 32.8321 97.118C36.0708 96.7384 39.3096 96.169 40.2621 96.169C41.2147 96.169 41.9768 96.5486 41.9768 96.169C41.9768 95.7893 41.4052 95.0301 41.4052 94.6505C41.4052 94.2708 41.2147 93.3218 41.2147 92.7524C41.2147 92.1829 40.8337 91.2339 40.8337 90.4746C40.8337 89.7154 45.025 79.4656 45.025 79.4656C45.025 79.4656 44.8345 76.2388 41.7863 74.7203C38.738 73.2018 38.357 72.6324 38.357 72.6324C38.357 72.6324 38.2976 71.4935 38.1368 71.4935C37.976 71.4935 37.4044 73.2018 35.8803 73.3917L35.4993 73.2018Z" fill="#D0CDE1"/>
<path d="M25.2115 98.4467L26.5452 100.535L29.9744 99.7753L27.4977 96.9282L25.2115 98.4467Z" fill="#FBBEBE"/>
<path d="M43.882 77.947L45.0251 79.4655C45.0251 79.4655 47.3112 90.4745 46.9302 94.4606C46.5492 98.4466 46.1682 101.484 46.1682 101.484C46.1682 101.484 46.9302 104.331 46.3587 104.331C45.7871 104.331 42.3579 104.521 42.3579 103.951C42.3579 103.382 42.7389 99.7753 42.7389 99.7753L41.7863 91.4236L39.6907 88.5764L43.882 77.947Z" fill="#D0CDE1"/>
<path d="M33.7687 64.8103C34.0022 64.7117 34.2722 64.7917 34.5224 64.7497C34.8161 64.7003 35.0789 64.4834 35.3755 64.5108C35.5161 64.5368 35.6527 64.5809 35.7817 64.6422C35.8465 64.6725 35.9167 64.6895 35.9882 64.692C36.0598 64.6946 36.131 64.6827 36.1978 64.657C36.2296 64.6423 36.2578 64.6207 36.2802 64.5938C36.3026 64.5669 36.3187 64.5354 36.3274 64.5015C36.3361 64.4676 36.337 64.4323 36.3303 64.398C36.3235 64.3637 36.3092 64.3313 36.2883 64.3032C36.5393 64.2811 36.7765 64.1794 36.965 64.0129C37.0026 63.9741 37.0462 63.9415 37.0942 63.9164C37.1501 63.9019 37.2084 63.8989 37.2655 63.9078C37.3226 63.9167 37.3773 63.9371 37.4261 63.9679L37.8621 64.1681C37.9603 64.2027 38.0466 64.2642 38.1112 64.3457C38.163 64.4262 38.1732 64.5346 38.2466 64.5962C38.3403 64.6749 38.4804 64.6364 38.6027 64.6441C38.7138 64.6549 38.817 64.7059 38.8928 64.7875C38.9686 64.869 39.0117 64.9755 39.014 65.0866C39.0123 65.2141 38.9657 65.3704 39.0669 65.4484C39.1256 65.4937 39.2089 65.4864 39.2777 65.5143C39.4559 65.5863 39.4566 65.8335 39.4302 66.0233C39.4039 66.2131 39.4169 66.4635 39.6001 66.5219C39.7291 66.5631 39.8609 66.4753 39.9948 66.4558C40.197 66.4263 40.384 66.5522 40.5639 66.6486C40.7439 66.745 40.9829 66.81 41.1389 66.6785C41.284 66.5562 41.2747 66.3324 41.2348 66.1472C41.1775 65.8817 41.0834 65.6255 40.9553 65.3858C40.9078 65.3153 40.8799 65.2335 40.8742 65.1488C40.8851 65.0892 40.9085 65.0326 40.943 64.9826C40.9774 64.9326 41.0221 64.8905 41.0741 64.859C41.2945 64.6854 41.5482 64.5105 41.6195 64.2397C41.6719 64.041 41.613 63.8313 41.6175 63.6259C41.6231 63.3759 41.7229 63.1269 41.6761 62.8813C41.5912 62.4359 41.0938 62.2216 40.7727 61.9005C40.3314 61.4593 40.1882 60.7536 39.6674 60.409C39.2508 60.1333 38.7059 60.1662 38.2315 60.0085C37.7104 59.8352 37.2909 59.4371 36.7768 59.244C36.4962 59.1409 36.1962 59.101 35.8983 59.127C35.6004 59.153 35.3119 59.2444 35.0536 59.3946C34.9002 59.5079 34.7291 59.5951 34.547 59.6525C34.3937 59.6702 34.2388 59.6684 34.0859 59.6472C33.7821 59.6315 33.4793 59.6938 33.2065 59.8279C33.1021 59.8695 33.0151 59.9455 32.9601 60.0432C32.8681 60.2469 33.0018 60.5652 32.8 60.6626C32.706 60.708 32.5949 60.6645 32.4904 60.6668C32.2872 60.6712 32.1309 60.8474 32.0342 61.0255C31.9588 61.2138 31.8506 61.3873 31.7146 61.5381C31.4662 61.7548 31.0149 61.7906 30.95 62.1132C30.9489 62.2497 30.9566 62.3862 30.9733 62.5218C30.9546 62.8076 30.6475 63.0248 30.6636 63.3108C30.6821 63.6407 31.1027 63.8019 31.2152 64.1127C31.3008 64.3494 31.1881 64.6053 31.1106 64.8447C31.0331 65.0841 31.0097 65.391 31.2099 65.5442C31.2884 65.6043 31.3894 65.629 31.4694 65.687C31.6766 65.8371 31.674 66.1401 31.651 66.3944C31.6378 66.4471 31.6377 66.5023 31.6508 66.5551C31.6639 66.6079 31.6899 66.6567 31.7263 66.6972C31.7605 66.7179 31.7987 66.731 31.8384 66.7358C31.8782 66.7405 31.9184 66.7368 31.9566 66.7248C32.081 66.6947 32.1979 66.6397 32.3002 66.563C32.4025 66.4863 32.488 66.3896 32.5514 66.2788C32.6181 66.1689 32.6315 66.072 32.7528 66.0137C32.835 65.9741 32.9349 66.0094 33.0186 65.9581C33.4169 65.7138 33.2798 65.0168 33.7687 64.8103Z" fill="#2F2E41"/>
<path d="M23.1159 78.3267L22.5444 78.8961C22.5444 78.8961 19.1151 89.1459 20.2582 91.4236C21.4013 93.7013 23.6874 99.3957 24.4495 99.2058C25.2116 99.016 27.8788 97.3077 27.8788 97.1179C27.8788 96.9281 24.64 91.6134 24.64 91.6134C24.64 91.6134 24.259 90.4746 24.4495 90.2847C24.64 90.0949 24.64 90.2847 24.4495 89.9051C24.259 89.5255 24.259 89.9051 24.64 89.5255C25.021 89.1459 25.021 89.1459 25.021 88.9561C25.021 88.7663 26.1641 84.021 26.1641 84.021L23.1159 78.3267Z" fill="#D0CDE1"/>
<path d="M26.0688 100.629L30.2603 99.3009L30.8317 100.629L26.2595 101.578L26.0688 100.629Z" fill="#2F2E41"/>
<path opacity="0.1" d="M26.0688 100.629L30.2603 99.3009L30.8317 100.629L26.2595 101.578L26.0688 100.629Z" fill="black"/>
<path opacity="0.1" d="M31.7843 71.968L35.023 74.6253L35.4042 74.0558L31.7843 71.968Z" fill="black"/>
<path opacity="0.1" d="M38.2618 72.7273L35.9757 74.0559L36.1662 74.6253L38.2618 72.7273Z" fill="black"/>
</g>
<path d="M209.413 18C211.233 18 212.813 18.3 214.153 18.9C215.513 19.5 216.553 20.36 217.273 21.48C217.993 22.6 218.353 23.93 218.353 25.47C218.353 26.99 217.993 28.32 217.273 29.46C216.553 30.58 215.513 31.44 214.153 32.04C212.813 32.64 211.233 32.94 209.413 32.94H204.673V39H200.773V18H209.413ZM209.233 29.64C210.933 29.64 212.223 29.28 213.103 28.56C213.983 27.84 214.423 26.81 214.423 25.47C214.423 24.13 213.983 23.1 213.103 22.38C212.223 21.66 210.933 21.3 209.233 21.3H204.673V29.64H209.233ZM227.861 22.8C230.221 22.8 232.021 23.37 233.261 24.51C234.521 25.63 235.151 27.33 235.151 29.61V39H231.611V37.05C231.151 37.75 230.491 38.29 229.631 38.67C228.791 39.03 227.771 39.21 226.571 39.21C225.371 39.21 224.321 39.01 223.421 38.61C222.521 38.19 221.821 37.62 221.321 36.9C220.841 36.16 220.601 35.33 220.601 34.41C220.601 32.97 221.131 31.82 222.191 30.96C223.271 30.08 224.961 29.64 227.261 29.64H231.401V29.4C231.401 28.28 231.061 27.42 230.381 26.82C229.721 26.22 228.731 25.92 227.411 25.92C226.511 25.92 225.621 26.06 224.741 26.34C223.881 26.62 223.151 27.01 222.551 27.51L221.081 24.78C221.921 24.14 222.931 23.65 224.111 23.31C225.291 22.97 226.541 22.8 227.861 22.8ZM227.351 36.48C228.291 36.48 229.121 36.27 229.841 35.85C230.581 35.41 231.101 34.79 231.401 33.99V32.13H227.531C225.371 32.13 224.291 32.84 224.291 34.26C224.291 34.94 224.561 35.48 225.101 35.88C225.641 36.28 226.391 36.48 227.351 36.48ZM249.594 38.13C249.154 38.49 248.614 38.76 247.974 38.94C247.354 39.12 246.694 39.21 245.994 39.21C244.234 39.21 242.874 38.75 241.914 37.83C240.954 36.91 240.474 35.57 240.474 33.81V26.1H237.834V23.1H240.474V19.44H244.224V23.1H248.514V26.1H244.224V33.72C244.224 34.5 244.414 35.1 244.794 35.52C245.174 35.92 245.724 36.12 246.444 36.12C247.284 36.12 247.984 35.9 248.544 35.46L249.594 38.13ZM261.769 22.8C263.789 22.8 265.409 23.39 266.629 24.57C267.849 25.75 268.459 27.5 268.459 29.82V39H264.709V30.3C264.709 28.9 264.379 27.85 263.719 27.15C263.059 26.43 262.119 26.07 260.899 26.07C259.519 26.07 258.429 26.49 257.629 27.33C256.829 28.15 256.429 29.34 256.429 30.9V39H252.679V16.74H256.429V24.84C257.049 24.18 257.809 23.68 258.709 23.34C259.629 22.98 260.649 22.8 261.769 22.8ZM185.747 58.27V64.66H195.887V67.96H185.747V76H181.847V55H197.177V58.27H185.747ZM200.296 59.98H204.046V76H200.296V59.98ZM202.186 57.34C201.506 57.34 200.936 57.13 200.476 56.71C200.016 56.27 199.786 55.73 199.786 55.09C199.786 54.45 200.016 53.92 200.476 53.5C200.936 53.06 201.506 52.84 202.186 52.84C202.866 52.84 203.436 53.05 203.896 53.47C204.356 53.87 204.586 54.38 204.586 55C204.586 55.66 204.356 56.22 203.896 56.68C203.456 57.12 202.886 57.34 202.186 57.34ZM218.058 59.8C220.078 59.8 221.698 60.39 222.918 61.57C224.138 62.75 224.748 64.5 224.748 66.82V76H220.998V67.3C220.998 65.9 220.668 64.85 220.008 64.15C219.348 63.43 218.408 63.07 217.188 63.07C215.808 63.07 214.718 63.49 213.918 64.33C213.118 65.15 212.718 66.34 212.718 67.9V76H208.968V59.98H212.538V62.05C213.158 61.31 213.938 60.75 214.878 60.37C215.818 59.99 216.878 59.8 218.058 59.8ZM245.341 53.74V76H241.741V73.93C241.121 74.69 240.351 75.26 239.431 75.64C238.531 76.02 237.531 76.21 236.431 76.21C234.891 76.21 233.501 75.87 232.261 75.19C231.041 74.51 230.081 73.55 229.381 72.31C228.681 71.05 228.331 69.61 228.331 67.99C228.331 66.37 228.681 64.94 229.381 63.7C230.081 62.46 231.041 61.5 232.261 60.82C233.501 60.14 234.891 59.8 236.431 59.8C237.491 59.8 238.461 59.98 239.341 60.34C240.221 60.7 240.971 61.24 241.591 61.96V53.74H245.341ZM236.881 73C237.781 73 238.591 72.8 239.311 72.4C240.031 71.98 240.601 71.39 241.021 70.63C241.441 69.87 241.651 68.99 241.651 67.99C241.651 66.99 241.441 66.11 241.021 65.35C240.601 64.59 240.031 64.01 239.311 63.61C238.591 63.19 237.781 62.98 236.881 62.98C235.981 62.98 235.171 63.19 234.451 63.61C233.731 64.01 233.161 64.59 232.741 65.35C232.321 66.11 232.111 66.99 232.111 67.99C232.111 68.99 232.321 69.87 232.741 70.63C233.161 71.39 233.731 71.98 234.451 72.4C235.171 72.8 235.981 73 236.881 73ZM250.247 59.98H253.997V76H250.247V59.98ZM252.137 57.34C251.457 57.34 250.887 57.13 250.427 56.71C249.967 56.27 249.737 55.73 249.737 55.09C249.737 54.45 249.967 53.92 250.427 53.5C250.887 53.06 251.457 52.84 252.137 52.84C252.817 52.84 253.387 53.05 253.847 53.47C254.307 53.87 254.537 54.38 254.537 55C254.537 55.66 254.307 56.22 253.847 56.68C253.407 57.12 252.837 57.34 252.137 57.34ZM268.009 59.8C270.029 59.8 271.649 60.39 272.869 61.57C274.089 62.75 274.699 64.5 274.699 66.82V76H270.949V67.3C270.949 65.9 270.619 64.85 269.959 64.15C269.299 63.43 268.359 63.07 267.139 63.07C265.759 63.07 264.669 63.49 263.869 64.33C263.069 65.15 262.669 66.34 262.669 67.9V76H258.919V59.98H262.489V62.05C263.109 61.31 263.889 60.75 264.829 60.37C265.769 59.99 266.829 59.8 268.009 59.8ZM295.503 59.98V73.57C295.503 79.21 292.623 82.03 286.863 82.03C285.323 82.03 283.863 81.83 282.483 81.43C281.103 81.05 279.963 80.49 279.063 79.75L280.743 76.93C281.443 77.51 282.323 77.97 283.383 78.31C284.463 78.67 285.553 78.85 286.653 78.85C288.413 78.85 289.703 78.45 290.523 77.65C291.343 76.85 291.753 75.63 291.753 73.99V73.15C291.113 73.85 290.333 74.38 289.413 74.74C288.493 75.1 287.483 75.28 286.383 75.28C284.863 75.28 283.483 74.96 282.243 74.32C281.023 73.66 280.053 72.74 279.333 71.56C278.633 70.38 278.283 69.03 278.283 67.51C278.283 65.99 278.633 64.65 279.333 63.49C280.053 62.31 281.023 61.4 282.243 60.76C283.483 60.12 284.863 59.8 286.383 59.8C287.543 59.8 288.593 59.99 289.533 60.37C290.493 60.75 291.293 61.33 291.933 62.11V59.98H295.503ZM286.953 72.1C288.373 72.1 289.533 71.68 290.433 70.84C291.353 69.98 291.813 68.87 291.813 67.51C291.813 66.17 291.353 65.08 290.433 64.24C289.533 63.4 288.373 62.98 286.953 62.98C285.513 62.98 284.333 63.4 283.413 64.24C282.513 65.08 282.063 66.17 282.063 67.51C282.063 68.87 282.513 69.98 283.413 70.84C284.333 71.68 285.513 72.1 286.953 72.1Z" fill="white"/>
<path d="M299.452 1H0.54823C0.402683 0.999616 0.263237 0.946762 0.160468 0.853035C0.0576995 0.759307 0 0.632359 0 0.5C0 0.367641 0.0576995 0.240667 0.160468 0.14694C0.263237 0.0532122 0.402683 0.000383578 0.54823 0H299.452C299.597 0.000383578 299.737 0.0532122 299.84 0.14694C299.942 0.240667 300 0.367641 300 0.5C300 0.632359 299.942 0.759307 299.84 0.853035C299.737 0.946762 299.597 0.999616 299.452 1Z" fill="#F7F7F7"/>
<defs>
<clipPath id="clip0">
<rect width="155" height="120" fill="white" transform="translate(6 31)"/>
</clipPath>
</defs>
</svg>
