<svg width="347" height="167" viewBox="0 0 347 167" fill="none" xmlns="http://www.w3.org/2000/svg">
<path d="M17.8615 100.812H15V124.987C15 124.987 33.4696 130.966 51.4189 124.987V100.812H17.8615Z" fill="#E6E6E6"/>
<path d="M32.9493 103.672C42.8625 103.672 50.8986 102.45 50.8986 100.942C50.8986 99.4349 42.8625 98.2129 32.9493 98.2129C23.0362 98.2129 15 99.4349 15 100.942C15 102.45 23.0362 103.672 32.9493 103.672Z" fill="#E6E6E6"/>
<path opacity="0.1" d="M32.9493 103.672C42.8625 103.672 50.8986 102.45 50.8986 100.942C50.8986 99.4349 42.8625 98.2129 32.9493 98.2129C23.0362 98.2129 15 99.4349 15 100.942C15 102.45 23.0362 103.672 32.9493 103.672Z" fill="black"/>
<path d="M39.2651 42.066C39.2651 42.066 50.2809 42.3653 52.1002 43.0267C53.9195 43.6881 54.7331 48.4178 54.7331 48.4178L46.18 51.1042L39.7828 50.7421L34.9683 51.082L37.6566 44.0466L39.2651 42.066Z" fill="#2F2E41"/>
<path d="M39.7402 38.4541C39.7402 38.4541 40.465 41.2513 38.8565 43.2319C37.2479 45.2124 45.7714 52.27 45.7714 52.27L50.268 51.4977C50.268 51.4977 49.2769 42.9029 50.6081 40.7265C51.9393 38.5501 39.7402 38.4541 39.7402 38.4541Z" fill="#9F616A"/>
<path d="M69.6448 120.237L59.7235 133.384L66.4943 137.334L75.8126 122.1L69.6448 120.237Z" fill="#9F616A"/>
<path d="M62.6854 133.606C62.6854 133.606 59.032 129.364 59.1947 130.31C59.3574 131.256 56.5951 139.278 59.1651 140.054C61.7351 140.83 83.7741 142.888 84.0773 140.401C84.3805 137.914 77.5026 136.174 77.5026 136.174C77.5026 136.174 73.4165 132.25 72.5105 132.649C71.6046 133.048 62.6854 133.606 62.6854 133.606Z" fill="#2F2E41"/>
<path d="M67.4186 132.793L75.3431 146.284L81.3262 142.821L73.3351 131.777L67.4186 132.793Z" fill="#9F616A"/>
<path d="M79.9283 100.698L77.5765 104.023C77.5765 104.023 66.3648 119.583 67.5555 120.84C68.7462 122.096 73.7049 126.844 76.2269 125.924C78.7488 125.004 87.7085 109.1 87.7085 109.1L85.3715 99.7628L79.9283 100.698Z" fill="#D0CDE1"/>
<path d="M31.6312 97.5496C31.6312 97.5496 34.142 102.231 40.5059 103.816C46.8699 105.402 53.5185 108.642 53.7552 108.602C53.9919 108.561 54.6612 108.202 54.8239 109.148C54.9866 110.094 56.732 111.742 56.732 111.742C56.732 111.742 63.7616 135.613 66.4462 135.638C69.1308 135.664 74.6479 133.743 74.7626 132.993C74.8772 132.243 66.5423 107.866 66.4609 107.393L65.4847 101.718C65.4847 101.718 76.5078 103.476 77.5358 103.787C78.5638 104.097 87.7085 109.1 87.7085 109.1C87.7085 109.1 97.0307 102.386 88.3112 95.6059C79.5918 88.8254 64.6045 83.8519 64.6045 83.8519L59.2279 82.3406L54.542 82.0611L53.852 79.4172L42.7541 80.0571L31.1726 84.9679L31.6312 97.5496Z" fill="#D0CDE1"/>
<path d="M46.278 44.0218C51.0523 44.0218 54.9227 40.1543 54.9227 35.3835C54.9227 30.6127 51.0523 26.7452 46.278 26.7452C41.5037 26.7452 37.6333 30.6127 37.6333 35.3835C37.6333 40.1543 41.5037 44.0218 46.278 44.0218Z" fill="#9F616A"/>
<path d="M38.4571 42.3265L39.4968 42.1479C39.4968 42.1479 41.3747 49.373 47.1839 50.5665C47.1839 50.5665 50.0504 47.1352 49.928 46.5562C49.8056 45.9772 52.1981 42.8881 53.4702 44.6174C54.7422 46.3467 53.1596 76.809 54.2283 77.3558C55.297 77.9027 57.5896 78.4828 55.7444 80.504C53.8992 82.5252 46.5702 85.2448 44.9468 84.3063C43.3235 83.3677 40.0065 75.4159 38.5718 72.7407C37.137 70.0655 34.8407 60.9645 34.8407 60.9645C34.8407 60.9645 31.9083 50.9989 33.7128 48.7412C35.5173 46.4835 38.4571 42.3265 38.4571 42.3265Z" fill="#6C63FF"/>
<path d="M46.7306 79.8287C46.5373 81.9507 46.2066 84.0579 45.7404 86.137C45.3164 87.8288 44.8228 88.8501 44.2594 88.8066C42.822 88.6993 42.1686 90.8059 41.8318 93.2346C41.4717 95.8114 41.4717 98.7508 41.2742 99.7896C41.0129 101.162 39.3403 102.21 35.9979 101.902C34.0074 101.676 32.0538 101.197 30.1844 100.477C25.6718 98.8378 25.8054 85.5422 26.5604 75.6764C27.0221 69.6292 27.7161 64.8675 27.7161 64.8675C27.7161 64.8675 26.3455 60.7819 25.907 57.9818C25.8197 57.4708 25.776 56.9535 25.7764 56.4352C25.8432 53.989 30.2488 50.8617 32.9494 46.7442C35.6529 42.6266 39.4042 42.1646 39.4042 42.1646L38.1207 46.0354C38.1207 46.0354 40.1098 49.1025 40.1243 52.0216C40.1389 54.9408 44.8866 57.0474 46.5912 58.4605C47.6627 59.3485 47.6366 71.202 46.7306 79.8287Z" fill="#2F2E41"/>
<path d="M50.4841 43.5477C50.4841 43.5477 50.7956 43.9157 52.2221 43.7362C53.9328 43.5209 56.285 44.1123 56.8314 45.7444C57.8335 48.7375 60.6587 60.9127 60.6587 60.9127C60.6587 60.9127 61.8346 74.8321 62.3634 77.9064C62.8922 80.9807 62.6297 83.704 63.1511 85.3187C63.6725 86.9335 58.0037 82.3072 55.9145 82.9095C53.8252 83.5118 52.4829 75.7078 52.7454 72.9846C53.008 70.2613 53.2298 67.3015 52.505 64.5044C51.7803 61.7072 53.0652 54.3041 53.0171 52.6081C52.9691 50.912 48.4103 46.6374 50.4841 43.5477Z" fill="#2F2E41"/>
<path d="M56.6009 86.809C56.6009 86.809 65.754 91.7987 66.63 98.9008C67.5059 106.003 54.3875 92.0242 54.3875 92.0242L56.6009 86.809Z" fill="#9F616A"/>
<path d="M61.8259 81.7725C61.8259 81.7725 64.6306 95.8991 68.9997 95.1487C73.3688 94.3983 66.5591 80.9596 66.5591 80.9596L61.8259 81.7725Z" fill="#9F616A"/>
<path d="M76.7888 143.357C76.7888 143.357 74.5517 145.933 73.997 145.541C73.4423 145.149 72.1666 150.481 73.3166 151.501C74.4666 152.521 78.8966 154.195 78.9447 155.891C78.9928 157.587 90.8738 157.251 91.2991 155.473C91.7243 153.696 89.8088 149.643 88.4628 148.9C87.1168 148.157 82.1399 141.321 82.1399 141.321C82.1399 141.321 78.2421 141.89 76.7888 143.357Z" fill="#2F2E41"/>
<path opacity="0.1" d="M55.143 95.4486C53.0203 93.9513 47.0935 93.5799 41.8317 93.2346C39.5232 93.0866 37.3424 92.9415 35.6668 92.7065C34.0523 92.4831 32.6004 91.009 31.3111 88.8124C29.3568 85.4841 27.7771 80.4932 26.5603 75.6763C27.0221 69.6292 27.7161 64.8675 27.7161 64.8675C27.7161 64.8675 26.3455 60.7819 25.907 57.9817C26.2161 57.5518 26.6142 57.1936 27.0743 56.9313C32.6555 54.5374 37.9841 78.0963 38.6607 81.7931C38.6723 81.8541 38.681 81.9121 38.6898 81.9614C39.0179 83.865 42.5635 85.4928 45.7403 86.137C47.6975 86.5345 49.5182 86.5607 50.3575 86.0441C52.5615 84.692 59.3391 90.1036 59.8531 90.2574C60.367 90.4141 58.192 97.6046 55.143 95.4486Z" fill="black"/>
<path d="M27.0753 55.4811C27.0753 55.4811 23.0188 57.3952 24.8012 66.341C26.5835 75.2868 30.1741 90.4957 35.6654 91.2569C41.1567 92.018 52.0911 91.8443 55.1418 93.9986C58.1925 96.1528 60.3668 88.9622 59.8528 88.807C59.3388 88.6518 52.5607 83.2422 50.3568 84.5946C48.1529 85.947 39.219 83.5859 38.6902 80.5116C38.1614 77.4373 32.7477 53.0461 27.0753 55.4811Z" fill="#2F2E41"/>
<path d="M56.3065 51.191L60.7647 61.5282C60.7647 61.5282 61.2135 61.3044 61.7349 62.9192C62.2563 64.5339 62.5004 65.9529 63.4137 67.0133C64.3271 68.0738 68.391 83.2015 68.5131 83.9109C68.6351 84.6204 62.9001 87.0662 61.6187 85.0951C60.3372 83.1239 56.3065 51.191 56.3065 51.191Z" fill="#2F2E41"/>
<path d="M41.3596 35.2633C41.6909 35.1749 41.7396 34.7353 41.7507 34.3929C41.8102 32.5589 42.9153 30.677 44.6722 30.1431C45.3463 29.9583 46.0522 29.9195 46.7425 30.0292C47.728 30.1604 48.6795 30.4776 49.5463 30.9639C50.0039 31.221 50.4527 31.5306 50.9718 31.6091C51.3145 31.661 52.7987 32.0922 53.14 32.1528C53.8904 32.2863 54.5878 32.9572 55.3079 32.7075C55.9969 32.4687 56.1494 31.5773 56.166 30.8489C56.204 29.1892 54.1627 27.6721 53.0522 26.4374C52.2095 25.5005 50.9405 25.068 49.7001 24.8431C48.2511 24.6105 46.7827 24.5212 45.3161 24.5766C43.331 24.612 43.1118 23.9853 41.3218 24.8436C39.5317 25.7019 38.0281 27.4101 37.9423 29.3923C37.9245 29.8052 37.9671 30.2198 37.9324 30.6316C37.8476 31.6362 37.0536 32.2837 36.8032 33.2604C36.6241 33.9769 36.5974 34.7231 36.7246 35.4507C36.8518 36.1782 37.1302 36.8711 37.5419 37.4845C38.2062 38.4615 38.3927 39.1857 39.1925 40.2455C39.6727 39.7484 39.3918 39.7913 39.872 39.2942C40.0872 39.1301 40.2395 38.8971 40.3035 38.6343C40.3675 38.3715 40.3394 38.0947 40.2238 37.8501L39.7139 35.8628C39.5829 35.508 39.5674 35.1209 39.6698 34.7568C40.2164 33.4072 40.8072 35.4107 41.3596 35.2633Z" fill="#2F2E41"/>
<path d="M245.965 60.4843C244.169 46.6262 242.147 32.6653 239.923 18.7853C238.925 12.5644 237.888 6.36539 236.813 0.188242L236.78 0L236.589 0.00874991C234.392 0.0897412 232.187 0.142278 229.974 0.166359C228.774 0.181686 227.574 0.189711 226.375 0.190435C222.421 0.199185 218.476 0.153225 214.605 0.109445C210.642 0.0634718 206.629 0.0175162 202.597 0.0306485C199.97 0.0393982 197.335 0.0722364 194.702 0.14665C190.619 0.262671 186.536 0.477182 182.485 0.853683C178.304 1.24111 174.071 1.80805 169.977 2.35747C165.316 2.9835 160.497 3.62924 155.732 4.0123C146.974 4.71713 138.046 4.56172 129.411 4.41287C124.751 4.33188 119.934 4.2487 115.196 4.30124C114.99 4.30342 114.706 4.28591 114.377 4.26183C113.17 4.17867 111.516 4.06265 111.025 4.85723C110.69 5.39571 111.085 7.04176 111.591 8.97678C111.722 9.47584 111.836 9.90926 111.869 10.1216C112.388 13.3261 112.8 16.592 113.098 19.8273C113.707 26.4743 113.855 33.1555 113.542 39.8231C113.193 47.2316 112.268 54.6019 110.778 61.8677L110.73 62.1019L110.966 62.1304C127.75 64.1245 145.294 65.3065 163.114 65.6436C165.776 65.6939 168.282 65.7224 170.663 65.7246C170.893 65.7268 171.121 65.7268 171.346 65.7268C173.224 65.7268 175.024 65.7114 176.761 65.683C177.876 65.6633 178.967 65.6377 180.032 65.6064C181.97 65.5473 183.835 65.4685 185.651 65.3678C185.797 65.3612 185.942 65.3524 186.087 65.3437C186.601 65.3152 187.113 65.2839 187.622 65.2496C188.444 65.197 189.258 65.1394 190.065 65.0766C195.666 64.6432 201.337 63.9428 206.866 63.2379C207.486 63.157 208.104 63.0774 208.719 62.9993C209.135 62.9468 209.552 62.8921 209.97 62.8396C218.303 61.7714 226.82 60.7229 235.33 60.5149C235.658 60.5062 235.989 60.4974 236.318 60.493C238.026 60.4624 239.734 60.4711 241.439 60.5193C242.872 60.5587 244.303 60.6295 245.733 60.7316L246 60.7491L245.965 60.4843ZM241.214 60.0728C239.569 60.029 237.923 60.0232 236.278 60.0553C235.897 60.0597 235.518 60.0684 235.137 60.0793C226.239 60.3092 217.346 61.4518 208.662 62.566L207.736 62.6842C207.501 62.7148 207.265 62.7455 207.03 62.7761C201.438 63.4919 195.696 64.2033 190.032 64.6411C189.388 64.6914 188.741 64.7374 188.089 64.7812C187.416 64.8271 186.739 64.8687 186.054 64.9081C185.909 64.9169 185.762 64.9256 185.616 64.9344C183.791 65.0329 181.914 65.1117 179.964 65.1686C178.691 65.208 177.386 65.2372 176.047 65.2561C174.31 65.2824 172.507 65.2933 170.628 65.2868C168.26 65.2824 165.767 65.2561 163.123 65.2058C145.402 64.8709 127.952 63.6976 111.255 61.7232C112.722 54.5107 113.633 47.1965 113.98 39.8449C114.295 33.157 114.146 26.4552 113.534 19.7879C113.236 16.5417 112.822 13.267 112.303 10.0515C112.263 9.81731 112.154 9.39703 112.016 8.86513C111.729 7.77724 111.135 5.5095 111.398 5.08705C111.751 4.51793 113.312 4.62738 114.348 4.69961C114.686 4.7215 114.975 4.7412 115.201 4.73902C119.932 4.68647 124.747 4.76965 129.404 4.85064C138.048 4.9995 146.988 5.1549 155.767 4.44789C160.543 4.06482 165.368 3.4169 170.036 2.79087C174.124 2.24364 178.352 1.6767 182.527 1.28927C182.847 1.25862 183.164 1.23017 183.484 1.2039C183.631 1.19077 183.778 1.17765 183.922 1.16669C187.429 0.873371 190.96 0.69388 194.492 0.591008C197.208 0.512209 199.924 0.477179 202.632 0.46843C206.649 0.455295 210.651 0.501251 214.601 0.547222C218.461 0.593196 222.39 0.636962 226.331 0.628213C227.547 0.626021 228.763 0.619462 229.978 0.601947C232.129 0.577871 234.275 0.528258 236.414 0.453103C237.45 6.40697 238.451 12.3878 239.415 18.3957C241.654 32.3326 243.691 46.3548 245.496 60.2741C244.07 60.1735 242.643 60.1064 241.214 60.0728Z" fill="white"/>
<path d="M145.778 64.396C145.023 59.0095 145.7 53.513 146.354 48.1976C146.704 45.3569 147.066 42.4196 147.205 39.5327C147.498 33.4467 146.816 27.2688 146.157 21.2943C145.561 15.9016 144.946 10.3253 145.045 4.81409L145.483 4.822C145.385 10.3052 145.998 15.8673 146.592 21.2463C147.253 27.2377 147.937 33.4332 147.642 39.5537C147.502 42.4569 147.14 45.4025 146.789 48.2511C146.138 53.5385 145.465 59.0058 146.212 64.3354L145.778 64.396Z" fill="white"/>
<path d="M185.692 65.9088C183.995 44.3764 183.252 22.5076 183.486 0.910156L183.924 0.91486C183.691 22.4994 184.432 44.355 186.129 65.8746L185.692 65.9088Z" fill="white"/>
<path d="M119.813 11.0543L119.767 10.6188C125.095 10.0563 130.455 9.85197 135.811 10.0072L135.798 10.4447C130.462 10.29 125.122 10.4936 119.813 11.0543Z" fill="white"/>
<path d="M157.421 9.15911L157.408 8.72154C160.03 8.64769 162.741 8.57126 165.376 8.19953C168.332 7.78248 171.265 6.9843 174.101 6.2124L174.216 6.63481C171.367 7.41022 168.42 8.21216 165.437 8.63305C162.778 9.00819 160.054 9.08493 157.421 9.15911Z" fill="white"/>
<path d="M220.989 6.12576C220.665 6.12576 220.342 6.12309 220.021 6.12042L195.042 5.91371L195.045 5.47592L220.025 5.68263C221.743 5.69695 223.519 5.71149 225.21 5.30737L225.312 5.73319C223.891 6.03285 222.44 6.16461 220.989 6.12576Z" fill="white"/>
<path d="M127.284 32.755H117.426C118.535 28.2093 119.6 23.9654 117.426 20.9348H127.284C129.139 24.879 129.139 28.8191 127.284 32.755Z" fill="#6C63FF"/>
<path d="M173.199 54.7068H163.341C162.725 49.2273 164.085 45.1431 163.341 42.8866H173.199C172.82 46.8176 172.82 50.7758 173.199 54.7068V54.7068Z" fill="#6C63FF"/>
<path d="M161.675 38.0084H151.818C152.187 33.4634 153.379 29.2194 151.818 26.1882H161.675C163.531 30.1283 163.531 34.0684 161.675 38.0084Z" fill="#6C63FF"/>
<path d="M171.752 27.9393H181.609C182.226 23.3935 180.865 19.1497 181.609 16.1191H171.752C169.896 20.0592 169.896 23.9993 171.752 27.9393Z" fill="#FF6584"/>
<path d="M127.065 52.893H136.922C137.539 48.3473 136.178 44.1034 136.922 41.0729H127.065C125.209 45.0129 125.209 48.953 127.065 52.893Z" fill="#3F3D56"/>
<path d="M162.669 129.33C160.887 129.33 159.16 129.077 157.488 128.571C155.838 128.065 154.529 127.394 153.561 126.558L155.046 123.225C155.992 123.973 157.147 124.589 158.511 125.073C159.897 125.535 161.283 125.766 162.669 125.766C164.385 125.766 165.661 125.491 166.497 124.941C167.355 124.391 167.784 123.665 167.784 122.763C167.784 122.103 167.542 121.564 167.058 121.146C166.596 120.706 166.002 120.365 165.276 120.123C164.55 119.881 163.56 119.606 162.306 119.298C160.546 118.88 159.116 118.462 158.016 118.044C156.938 117.626 156.003 116.977 155.211 116.097C154.441 115.195 154.056 113.985 154.056 112.467C154.056 111.191 154.397 110.036 155.079 109.002C155.783 107.946 156.828 107.11 158.214 106.494C159.622 105.878 161.338 105.57 163.362 105.57C164.77 105.57 166.156 105.746 167.52 106.098C168.884 106.45 170.061 106.956 171.051 107.616L169.698 110.949C168.686 110.355 167.63 109.904 166.53 109.596C165.43 109.288 164.363 109.134 163.329 109.134C161.635 109.134 160.37 109.42 159.534 109.992C158.72 110.564 158.313 111.323 158.313 112.269C158.313 112.929 158.544 113.468 159.006 113.886C159.49 114.304 160.095 114.634 160.821 114.876C161.547 115.118 162.537 115.393 163.791 115.701C165.507 116.097 166.915 116.515 168.015 116.955C169.115 117.373 170.05 118.022 170.82 118.902C171.612 119.782 172.008 120.97 172.008 122.466C172.008 123.742 171.656 124.897 170.952 125.931C170.27 126.965 169.225 127.79 167.817 128.406C166.409 129.022 164.693 129.33 162.669 129.33ZM192.432 120.288C192.432 120.574 192.41 120.981 192.366 121.509H178.539C178.781 122.807 179.408 123.841 180.42 124.611C181.454 125.359 182.73 125.733 184.248 125.733C186.184 125.733 187.779 125.095 189.033 123.819L191.244 126.36C190.452 127.306 189.451 128.021 188.241 128.505C187.031 128.989 185.667 129.231 184.149 129.231C182.213 129.231 180.508 128.846 179.034 128.076C177.56 127.306 176.416 126.239 175.602 124.875C174.81 123.489 174.414 121.927 174.414 120.189C174.414 118.473 174.799 116.933 175.569 115.569C176.361 114.183 177.45 113.105 178.836 112.335C180.222 111.565 181.784 111.18 183.522 111.18C185.238 111.18 186.767 111.565 188.109 112.335C189.473 113.083 190.529 114.15 191.277 115.536C192.047 116.9 192.432 118.484 192.432 120.288ZM183.522 114.48C182.202 114.48 181.08 114.876 180.156 115.668C179.254 116.438 178.704 117.472 178.506 118.77H188.505C188.329 117.494 187.79 116.46 186.888 115.668C185.986 114.876 184.864 114.48 183.522 114.48ZM202.643 111.18C205.239 111.18 207.219 111.807 208.583 113.061C209.969 114.293 210.662 116.163 210.662 118.671V129H206.768V126.855C206.262 127.625 205.536 128.219 204.59 128.637C203.666 129.033 202.544 129.231 201.224 129.231C199.904 129.231 198.749 129.011 197.759 128.571C196.769 128.109 195.999 127.482 195.449 126.69C194.921 125.876 194.657 124.963 194.657 123.951C194.657 122.367 195.24 121.102 196.406 120.156C197.594 119.188 199.453 118.704 201.983 118.704H206.537V118.44C206.537 117.208 206.163 116.262 205.415 115.602C204.689 114.942 203.6 114.612 202.148 114.612C201.158 114.612 200.179 114.766 199.211 115.074C198.265 115.382 197.462 115.811 196.802 116.361L195.185 113.358C196.109 112.654 197.22 112.115 198.518 111.741C199.816 111.367 201.191 111.18 202.643 111.18ZM202.082 126.228C203.116 126.228 204.029 125.997 204.821 125.535C205.635 125.051 206.207 124.369 206.537 123.489V121.443H202.28C199.904 121.443 198.716 122.224 198.716 123.786C198.716 124.534 199.013 125.128 199.607 125.568C200.201 126.008 201.026 126.228 202.082 126.228ZM219.883 113.952C221.071 112.104 223.161 111.18 226.153 111.18V115.107C225.801 115.041 225.482 115.008 225.196 115.008C223.59 115.008 222.336 115.481 221.434 116.427C220.532 117.351 220.081 118.693 220.081 120.453V129H215.956V111.378H219.883V113.952ZM237.576 129.231C235.75 129.231 234.111 128.846 232.659 128.076C231.207 127.306 230.074 126.239 229.26 124.875C228.446 123.489 228.039 121.927 228.039 120.189C228.039 118.451 228.446 116.9 229.26 115.536C230.074 114.172 231.196 113.105 232.626 112.335C234.078 111.565 235.728 111.18 237.576 111.18C239.314 111.18 240.832 111.532 242.13 112.236C243.45 112.94 244.44 113.952 245.1 115.272L241.932 117.12C241.426 116.306 240.788 115.701 240.018 115.305C239.27 114.887 238.445 114.678 237.543 114.678C236.003 114.678 234.727 115.184 233.715 116.196C232.703 117.186 232.197 118.517 232.197 120.189C232.197 121.861 232.692 123.203 233.682 124.215C234.694 125.205 235.981 125.7 237.543 125.7C238.445 125.7 239.27 125.502 240.018 125.106C240.788 124.688 241.426 124.072 241.932 123.258L245.1 125.106C244.418 126.426 243.417 127.449 242.097 128.175C240.799 128.879 239.292 129.231 237.576 129.231ZM258.504 111.18C260.726 111.18 262.508 111.829 263.85 113.127C265.192 114.425 265.863 116.35 265.863 118.902V129H261.738V119.43C261.738 117.89 261.375 116.735 260.649 115.965C259.923 115.173 258.889 114.777 257.547 114.777C256.029 114.777 254.83 115.239 253.95 116.163C253.07 117.065 252.63 118.374 252.63 120.09V129H248.505V104.514H252.63V113.424C253.312 112.698 254.148 112.148 255.138 111.774C256.15 111.378 257.272 111.18 258.504 111.18ZM271.096 111.378H275.221V129H271.096V111.378ZM273.175 108.474C272.427 108.474 271.8 108.243 271.294 107.781C270.788 107.297 270.535 106.703 270.535 105.999C270.535 105.295 270.788 104.712 271.294 104.25C271.8 103.766 272.427 103.524 273.175 103.524C273.923 103.524 274.55 103.755 275.056 104.217C275.562 104.657 275.815 105.218 275.815 105.9C275.815 106.626 275.562 107.242 275.056 107.748C274.572 108.232 273.945 108.474 273.175 108.474ZM290.634 111.18C292.856 111.18 294.638 111.829 295.98 113.127C297.322 114.425 297.993 116.35 297.993 118.902V129H293.868V119.43C293.868 117.89 293.505 116.735 292.779 115.965C292.053 115.173 291.019 114.777 289.677 114.777C288.159 114.777 286.96 115.239 286.08 116.163C285.2 117.065 284.76 118.374 284.76 120.09V129H280.635V111.378H284.562V113.655C285.244 112.841 286.102 112.225 287.136 111.807C288.17 111.389 289.336 111.18 290.634 111.18ZM320.877 111.378V126.327C320.877 132.531 317.709 135.633 311.373 135.633C309.679 135.633 308.073 135.413 306.555 134.973C305.037 134.555 303.783 133.939 302.793 133.125L304.641 130.023C305.411 130.661 306.379 131.167 307.545 131.541C308.733 131.937 309.932 132.135 311.142 132.135C313.078 132.135 314.497 131.695 315.399 130.815C316.301 129.935 316.752 128.593 316.752 126.789V125.865C316.048 126.635 315.19 127.218 314.178 127.614C313.166 128.01 312.055 128.208 310.845 128.208C309.173 128.208 307.655 127.856 306.291 127.152C304.949 126.426 303.882 125.414 303.09 124.116C302.32 122.818 301.935 121.333 301.935 119.661C301.935 117.989 302.32 116.515 303.09 115.239C303.882 113.941 304.949 112.94 306.291 112.236C307.655 111.532 309.173 111.18 310.845 111.18C312.121 111.18 313.276 111.389 314.31 111.807C315.366 112.225 316.246 112.863 316.95 113.721V111.378H320.877ZM311.472 124.71C313.034 124.71 314.31 124.248 315.3 123.324C316.312 122.378 316.818 121.157 316.818 119.661C316.818 118.187 316.312 116.988 315.3 116.064C314.31 115.14 313.034 114.678 311.472 114.678C309.888 114.678 308.59 115.14 307.578 116.064C306.588 116.988 306.093 118.187 306.093 119.661C306.093 121.157 306.588 122.378 307.578 123.324C308.59 124.248 309.888 124.71 311.472 124.71Z" fill="white"/>
</svg>
