<svg width="323" height="157" viewBox="0 0 323 157" fill="none" xmlns="http://www.w3.org/2000/svg">
<g clip-path="url(#clip0)">
<path d="M2.86149 100.812H0V124.987C0 124.987 18.4696 130.966 36.4189 124.987V100.812H2.86149Z" fill="#E6E6E6"/>
<path d="M17.9493 103.672C27.8625 103.672 35.8986 102.45 35.8986 100.942C35.8986 99.4349 27.8625 98.2129 17.9493 98.2129C8.03619 98.2129 0 99.4349 0 100.942C0 102.45 8.03619 103.672 17.9493 103.672Z" fill="#E6E6E6"/>
<path opacity="0.1" d="M17.9493 103.672C27.8625 103.672 35.8986 102.45 35.8986 100.942C35.8986 99.4349 27.8625 98.2129 17.9493 98.2129C8.03619 98.2129 0 99.4349 0 100.942C0 102.45 8.03619 103.672 17.9493 103.672Z" fill="black"/>
<path d="M24.2651 42.066C24.2651 42.066 35.2809 42.3653 37.1002 43.0267C38.9195 43.6881 39.7331 48.4178 39.7331 48.4178L31.18 51.1042L24.7828 50.7421L19.9683 51.082L22.6566 44.0466L24.2651 42.066Z" fill="#2F2E41"/>
<path d="M24.7402 38.4541C24.7402 38.4541 25.465 41.2513 23.8565 43.2319C22.2479 45.2124 30.7714 52.27 30.7714 52.27L35.268 51.4977C35.268 51.4977 34.2769 42.9029 35.6081 40.7265C36.9393 38.5501 24.7402 38.4541 24.7402 38.4541Z" fill="#9F616A"/>
<path d="M54.6448 120.237L44.7235 133.384L51.4943 137.334L60.8126 122.1L54.6448 120.237Z" fill="#9F616A"/>
<path d="M47.6854 133.606C47.6854 133.606 44.032 129.364 44.1947 130.31C44.3574 131.256 41.5951 139.278 44.1651 140.054C46.7351 140.83 68.7741 142.888 69.0773 140.401C69.3805 137.914 62.5026 136.174 62.5026 136.174C62.5026 136.174 58.4165 132.25 57.5105 132.649C56.6046 133.048 47.6854 133.606 47.6854 133.606Z" fill="#2F2E41"/>
<path d="M52.4186 132.793L60.3431 146.284L66.3262 142.821L58.3351 131.777L52.4186 132.793Z" fill="#9F616A"/>
<path d="M64.9283 100.698L62.5765 104.023C62.5765 104.023 51.3648 119.583 52.5555 120.84C53.7462 122.096 58.7049 126.844 61.2269 125.924C63.7488 125.004 72.7085 109.1 72.7085 109.1L70.3715 99.7628L64.9283 100.698Z" fill="#D0CDE1"/>
<path d="M16.6312 97.5496C16.6312 97.5496 19.142 102.231 25.5059 103.816C31.8699 105.402 38.5185 108.642 38.7552 108.602C38.9919 108.561 39.6612 108.202 39.8239 109.148C39.9866 110.094 41.732 111.742 41.732 111.742C41.732 111.742 48.7616 135.613 51.4462 135.638C54.1308 135.664 59.6479 133.743 59.7626 132.993C59.8772 132.243 51.5423 107.866 51.4609 107.393L50.4847 101.718C50.4847 101.718 61.5078 103.476 62.5358 103.787C63.5638 104.097 72.7085 109.1 72.7085 109.1C72.7085 109.1 82.0307 102.386 73.3112 95.6059C64.5918 88.8254 49.6045 83.8519 49.6045 83.8519L44.2279 82.3406L39.542 82.0611L38.852 79.4172L27.7541 80.0571L16.1726 84.9679L16.6312 97.5496Z" fill="#D0CDE1"/>
<path d="M31.278 44.0218C36.0523 44.0218 39.9227 40.1543 39.9227 35.3835C39.9227 30.6127 36.0523 26.7452 31.278 26.7452C26.5037 26.7452 22.6333 30.6127 22.6333 35.3835C22.6333 40.1543 26.5037 44.0218 31.278 44.0218Z" fill="#9F616A"/>
<path d="M23.4571 42.3265L24.4968 42.1479C24.4968 42.1479 26.3747 49.373 32.1839 50.5665C32.1839 50.5665 35.0504 47.1352 34.928 46.5562C34.8056 45.9772 37.1981 42.8881 38.4702 44.6174C39.7422 46.3467 38.1596 76.809 39.2283 77.3558C40.297 77.9027 42.5896 78.4828 40.7444 80.504C38.8992 82.5252 31.5702 85.2448 29.9468 84.3063C28.3235 83.3677 25.0065 75.416 23.5718 72.7407C22.137 70.0655 19.8407 60.9645 19.8407 60.9645C19.8407 60.9645 16.9083 50.9989 18.7128 48.7412C20.5173 46.4835 23.4571 42.3265 23.4571 42.3265Z" fill="#6C63FF"/>
<path d="M31.7306 79.8287C31.5373 81.9507 31.2066 84.0579 30.7404 86.137C30.3164 87.8288 29.8228 88.8501 29.2594 88.8066C27.822 88.6993 27.1686 90.8059 26.8318 93.2346C26.4717 95.8114 26.4717 98.7508 26.2742 99.7896C26.0129 101.162 24.3403 102.21 20.9979 101.902C19.0074 101.676 17.0538 101.197 15.1844 100.477C10.6718 98.8378 10.8054 85.5422 11.5604 75.6764C12.0221 69.6292 12.7161 64.8675 12.7161 64.8675C12.7161 64.8675 11.3455 60.7819 10.907 57.9818C10.8197 57.4708 10.776 56.9535 10.7764 56.4352C10.8432 53.989 15.2488 50.8617 17.9494 46.7442C20.6529 42.6266 24.4042 42.1646 24.4042 42.1646L23.1207 46.0354C23.1207 46.0354 25.1098 49.1025 25.1243 52.0216C25.1389 54.9408 29.8866 57.0474 31.5912 58.4605C32.6627 59.3485 32.6366 71.202 31.7306 79.8287Z" fill="#2F2E41"/>
<path d="M35.4841 43.5477C35.4841 43.5477 35.7956 43.9157 37.2221 43.7362C38.9328 43.5209 41.285 44.1123 41.8314 45.7444C42.8335 48.7375 45.6587 60.9127 45.6587 60.9127C45.6587 60.9127 46.8346 74.8321 47.3634 77.9064C47.8922 80.9807 47.6297 83.704 48.1511 85.3187C48.6725 86.9335 43.0037 82.3072 40.9145 82.9095C38.8252 83.5118 37.4829 75.7078 37.7454 72.9846C38.008 70.2613 38.2298 67.3015 37.505 64.5044C36.7803 61.7072 38.0652 54.3041 38.0171 52.6081C37.9691 50.912 33.4103 46.6374 35.4841 43.5477Z" fill="#2F2E41"/>
<path d="M41.6009 86.809C41.6009 86.809 50.754 91.7987 51.63 98.9008C52.5059 106.003 39.3875 92.0242 39.3875 92.0242L41.6009 86.809Z" fill="#9F616A"/>
<path d="M46.8259 81.7725C46.8259 81.7725 49.6306 95.8991 53.9997 95.1487C58.3688 94.3983 51.5591 80.9596 51.5591 80.9596L46.8259 81.7725Z" fill="#9F616A"/>
<path d="M61.7888 143.357C61.7888 143.357 59.5517 145.933 58.997 145.541C58.4423 145.149 57.1666 150.481 58.3166 151.501C59.4666 152.521 63.8966 154.195 63.9447 155.891C63.9928 157.587 75.8738 157.251 76.2991 155.473C76.7243 153.696 74.8088 149.643 73.4628 148.9C72.1168 148.157 67.1399 141.321 67.1399 141.321C67.1399 141.321 63.2421 141.89 61.7888 143.357Z" fill="#2F2E41"/>
<path opacity="0.1" d="M40.143 95.4486C38.0203 93.9513 32.0935 93.5799 26.8317 93.2346C24.5232 93.0866 22.3424 92.9415 20.6668 92.7065C19.0523 92.4831 17.6004 91.009 16.3111 88.8124C14.3568 85.4841 12.7771 80.4932 11.5603 75.6763C12.0221 69.6292 12.7161 64.8675 12.7161 64.8675C12.7161 64.8675 11.3455 60.7819 10.907 57.9817C11.2161 57.5518 11.6142 57.1936 12.0743 56.9313C17.6555 54.5374 22.9841 78.0963 23.6607 81.7931C23.6723 81.8541 23.681 81.9121 23.6898 81.9614C24.0179 83.865 27.5635 85.4928 30.7403 86.137C32.6975 86.5345 34.5182 86.5607 35.3575 86.0441C37.5615 84.692 44.3391 90.1036 44.8531 90.2574C45.367 90.4141 43.192 97.6046 40.143 95.4486Z" fill="black"/>
<path d="M12.0753 55.4811C12.0753 55.4811 8.01879 57.3952 9.80116 66.341C11.5835 75.2868 15.1741 90.4957 20.6654 91.2569C26.1567 92.018 37.0911 91.8443 40.1418 93.9986C43.1925 96.1528 45.3668 88.9622 44.8528 88.807C44.3388 88.6518 37.5607 83.2422 35.3568 84.5946C33.1529 85.947 24.219 83.5859 23.6902 80.5116C23.1614 77.4373 17.7477 53.0461 12.0753 55.4811Z" fill="#2F2E41"/>
<path d="M41.3065 51.191L45.7647 61.5282C45.7647 61.5282 46.2135 61.3044 46.7349 62.9192C47.2563 64.5339 47.5004 65.9529 48.4137 67.0133C49.3271 68.0738 53.391 83.2015 53.5131 83.9109C53.6351 84.6204 47.9001 87.0662 46.6187 85.0951C45.3372 83.1239 41.3065 51.191 41.3065 51.191Z" fill="#2F2E41"/>
<path d="M26.3596 35.2633C26.6909 35.1749 26.7396 34.7353 26.7507 34.3929C26.8102 32.5589 27.9153 30.677 29.6722 30.1431C30.3463 29.9583 31.0522 29.9195 31.7425 30.0292C32.728 30.1604 33.6795 30.4776 34.5463 30.9639C35.0039 31.221 35.4527 31.5306 35.9718 31.6091C36.3145 31.661 37.7987 32.0922 38.14 32.1528C38.8904 32.2863 39.5878 32.9572 40.3079 32.7075C40.9969 32.4687 41.1494 31.5773 41.166 30.8489C41.204 29.1892 39.1627 27.6721 38.0522 26.4374C37.2095 25.5005 35.9405 25.068 34.7001 24.8431C33.2511 24.6105 31.7827 24.5212 30.3161 24.5766C28.331 24.612 28.1118 23.9853 26.3218 24.8436C24.5317 25.7019 23.0281 27.4101 22.9423 29.3923C22.9245 29.8052 22.9671 30.2198 22.9324 30.6316C22.8476 31.6362 22.0536 32.2837 21.8032 33.2604C21.6241 33.9769 21.5974 34.7231 21.7246 35.4507C21.8518 36.1782 22.1302 36.8711 22.5419 37.4845C23.2062 38.4615 23.3927 39.1857 24.1925 40.2455C24.6727 39.7484 24.3918 39.7913 24.872 39.2942C25.0872 39.1301 25.2395 38.8971 25.3035 38.6343C25.3675 38.3715 25.3394 38.0947 25.2238 37.8501L24.7139 35.8628C24.5829 35.508 24.5674 35.1209 24.6698 34.7568C25.2164 33.4072 25.8072 35.4107 26.3596 35.2633Z" fill="#2F2E41"/>
<path d="M230.965 60.4843C229.169 46.6262 227.147 32.6653 224.923 18.7853C223.925 12.5644 222.888 6.36539 221.813 0.188242L221.78 0L221.589 0.00874991C219.392 0.0897412 217.187 0.142278 214.974 0.166359C213.774 0.181686 212.574 0.189711 211.375 0.190435C207.421 0.199185 203.476 0.153225 199.605 0.109445C195.642 0.0634718 191.629 0.0175162 187.597 0.0306485C184.97 0.0393982 182.335 0.0722364 179.702 0.14665C175.619 0.262671 171.536 0.477182 167.485 0.853683C163.304 1.24111 159.071 1.80805 154.977 2.35747C150.316 2.9835 145.497 3.62924 140.732 4.0123C131.974 4.71712 123.046 4.56172 114.411 4.41287C109.751 4.33188 104.934 4.2487 100.196 4.30124C99.9903 4.30342 99.7056 4.28591 99.377 4.26183C98.17 4.17867 96.5161 4.06265 96.0255 4.85723C95.6903 5.39571 96.0846 7.04176 96.5906 8.97678C96.7221 9.47584 96.836 9.90926 96.8688 10.1216C97.388 13.3261 97.7998 16.592 98.0977 19.8273C98.7069 26.4743 98.8555 33.1555 98.5424 39.8231C98.1926 47.2316 97.2684 54.6019 95.7779 61.8677L95.7297 62.1019L95.9663 62.1304C112.75 64.1245 130.294 65.3065 148.114 65.6436C150.776 65.6939 153.282 65.7224 155.663 65.7246C155.893 65.7268 156.121 65.7268 156.346 65.7268C158.224 65.7268 160.024 65.7114 161.761 65.683C162.876 65.6633 163.967 65.6377 165.032 65.6064C166.97 65.5473 168.835 65.4685 170.651 65.3678C170.797 65.3612 170.942 65.3524 171.087 65.3437C171.601 65.3152 172.113 65.2839 172.622 65.2496C173.444 65.197 174.258 65.1394 175.065 65.0766C180.666 64.6432 186.337 63.9428 191.866 63.2379C192.486 63.157 193.104 63.0774 193.719 62.9993C194.135 62.9468 194.552 62.8921 194.97 62.8396C203.303 61.7714 211.82 60.7229 220.33 60.5149C220.658 60.5062 220.989 60.4974 221.318 60.493C223.026 60.4624 224.734 60.4711 226.439 60.5193C227.872 60.5587 229.303 60.6295 230.733 60.7316L231 60.7491L230.965 60.4843ZM226.214 60.0728C224.569 60.029 222.923 60.0232 221.278 60.0553C220.897 60.0597 220.518 60.0684 220.137 60.0793C211.239 60.3092 202.346 61.4518 193.662 62.566L192.736 62.6842C192.501 62.7148 192.265 62.7455 192.03 62.7761C186.438 63.4919 180.696 64.2033 175.032 64.6411C174.388 64.6914 173.741 64.7374 173.089 64.7812C172.416 64.8271 171.739 64.8687 171.054 64.9081C170.909 64.9169 170.762 64.9256 170.616 64.9344C168.791 65.0329 166.914 65.1117 164.964 65.1686C163.691 65.208 162.386 65.2372 161.047 65.2561C159.31 65.2824 157.507 65.2934 155.628 65.2868C153.26 65.2824 150.767 65.2561 148.123 65.2058C130.402 64.8709 112.952 63.6976 96.2555 61.7232C97.7215 54.5107 98.6325 47.1965 98.9805 39.8449C99.2951 33.157 99.1458 26.4552 98.5336 19.7879C98.2357 16.5417 97.8217 13.267 97.3025 10.0515C97.2631 9.81731 97.1536 9.39703 97.0156 8.86513C96.7286 7.77724 96.135 5.5095 96.3978 5.08705C96.7505 4.51793 98.3124 4.62738 99.3485 4.69961C99.6858 4.7215 99.975 4.7412 100.201 4.73902C104.932 4.68647 109.747 4.76965 114.404 4.85064C123.048 4.9995 131.988 5.1549 140.767 4.44789C145.543 4.06482 150.368 3.4169 155.036 2.79087C159.124 2.24364 163.352 1.6767 167.527 1.28927C167.847 1.25862 168.164 1.23017 168.484 1.2039C168.631 1.19077 168.778 1.17765 168.922 1.16669C172.429 0.873371 175.96 0.69388 179.492 0.591008C182.208 0.512209 184.924 0.477179 187.632 0.46843C191.649 0.455295 195.651 0.501251 199.601 0.547222C203.461 0.593196 207.39 0.636962 211.331 0.628213C212.547 0.626021 213.763 0.619462 214.978 0.601947C217.129 0.577871 219.275 0.528258 221.414 0.453103C222.45 6.40697 223.451 12.3878 224.415 18.3957C226.654 32.3326 228.691 46.3548 230.496 60.2741C229.07 60.1735 227.643 60.1064 226.214 60.0728Z" fill="white"/>
<path d="M130.778 64.396C130.023 59.0095 130.7 53.513 131.354 48.1976C131.704 45.3569 132.066 42.4196 132.205 39.5327C132.498 33.4467 131.816 27.2688 131.157 21.2943C130.561 15.9016 129.946 10.3253 130.045 4.81409L130.483 4.822C130.385 10.3052 130.998 15.8673 131.592 21.2463C132.253 27.2377 132.937 33.4332 132.642 39.5537C132.502 42.4569 132.14 45.4025 131.789 48.2511C131.138 53.5385 130.465 59.0058 131.212 64.3354L130.778 64.396Z" fill="white"/>
<path d="M170.692 65.9089C168.995 44.3764 168.252 22.5076 168.486 0.910156L168.924 0.91486C168.691 22.4994 169.432 44.355 171.129 65.8746L170.692 65.9089Z" fill="white"/>
<path d="M104.813 11.0543L104.767 10.6188C110.095 10.0563 115.455 9.85197 120.811 10.0072L120.798 10.4447C115.462 10.29 110.122 10.4936 104.813 11.0543Z" fill="white"/>
<path d="M142.421 9.15911L142.408 8.72154C145.03 8.64769 147.741 8.57126 150.376 8.19953C153.332 7.78248 156.265 6.9843 159.101 6.2124L159.216 6.63481C156.367 7.41022 153.42 8.21216 150.437 8.63305C147.778 9.00819 145.054 9.08493 142.421 9.15911Z" fill="white"/>
<path d="M205.989 6.12576C205.665 6.12576 205.342 6.12309 205.021 6.12042L180.042 5.91371L180.045 5.47592L205.025 5.68263C206.743 5.69695 208.519 5.71149 210.21 5.30737L210.312 5.73319C208.891 6.03285 207.44 6.16461 205.989 6.12576Z" fill="white"/>
<path d="M112.284 32.755H102.426C103.535 28.2093 104.6 23.9654 102.426 20.9348H112.284C114.139 24.879 114.139 28.8191 112.284 32.755Z" fill="#6C63FF"/>
<path d="M158.199 54.7068H148.341C147.725 49.2273 149.085 45.1431 148.341 42.8866H158.199C157.82 46.8176 157.82 50.7758 158.199 54.7068Z" fill="#6C63FF"/>
<path d="M146.675 38.0084H136.818C137.187 33.4634 138.379 29.2194 136.818 26.1882H146.675C148.531 30.1283 148.531 34.0684 146.675 38.0084Z" fill="#6C63FF"/>
<path d="M156.752 27.9393H166.609C167.226 23.3935 165.865 19.1497 166.609 16.1191H156.752C154.896 20.0592 154.896 23.9993 156.752 27.9393Z" fill="#FF6584"/>
<path d="M112.065 52.893H121.922C122.539 48.3473 121.178 44.1034 121.922 41.0729H112.065C110.209 45.0129 110.209 48.953 112.065 52.893Z" fill="#3F3D56"/>
<path d="M147.669 129.33C145.887 129.33 144.16 129.077 142.488 128.571C140.838 128.065 139.529 127.394 138.561 126.558L140.046 123.225C140.992 123.973 142.147 124.589 143.511 125.073C144.897 125.535 146.283 125.766 147.669 125.766C149.385 125.766 150.661 125.491 151.497 124.941C152.355 124.391 152.784 123.665 152.784 122.763C152.784 122.103 152.542 121.564 152.058 121.146C151.596 120.706 151.002 120.365 150.276 120.123C149.55 119.881 148.56 119.606 147.306 119.298C145.546 118.88 144.116 118.462 143.016 118.044C141.938 117.626 141.003 116.977 140.211 116.097C139.441 115.195 139.056 113.985 139.056 112.467C139.056 111.191 139.397 110.036 140.079 109.002C140.783 107.946 141.828 107.11 143.214 106.494C144.622 105.878 146.338 105.57 148.362 105.57C149.77 105.57 151.156 105.746 152.52 106.098C153.884 106.45 155.061 106.956 156.051 107.616L154.698 110.949C153.686 110.355 152.63 109.904 151.53 109.596C150.43 109.288 149.363 109.134 148.329 109.134C146.635 109.134 145.37 109.42 144.534 109.992C143.72 110.564 143.313 111.323 143.313 112.269C143.313 112.929 143.544 113.468 144.006 113.886C144.49 114.304 145.095 114.634 145.821 114.876C146.547 115.118 147.537 115.393 148.791 115.701C150.507 116.097 151.915 116.515 153.015 116.955C154.115 117.373 155.05 118.022 155.82 118.902C156.612 119.782 157.008 120.97 157.008 122.466C157.008 123.742 156.656 124.897 155.952 125.931C155.27 126.965 154.225 127.79 152.817 128.406C151.409 129.022 149.693 129.33 147.669 129.33ZM177.432 120.288C177.432 120.574 177.41 120.981 177.366 121.509H163.539C163.781 122.807 164.408 123.841 165.42 124.611C166.454 125.359 167.73 125.733 169.248 125.733C171.184 125.733 172.779 125.095 174.033 123.819L176.244 126.36C175.452 127.306 174.451 128.021 173.241 128.505C172.031 128.989 170.667 129.231 169.149 129.231C167.213 129.231 165.508 128.846 164.034 128.076C162.56 127.306 161.416 126.239 160.602 124.875C159.81 123.489 159.414 121.927 159.414 120.189C159.414 118.473 159.799 116.933 160.569 115.569C161.361 114.183 162.45 113.105 163.836 112.335C165.222 111.565 166.784 111.18 168.522 111.18C170.238 111.18 171.767 111.565 173.109 112.335C174.473 113.083 175.529 114.15 176.277 115.536C177.047 116.9 177.432 118.484 177.432 120.288ZM168.522 114.48C167.202 114.48 166.08 114.876 165.156 115.668C164.254 116.438 163.704 117.472 163.506 118.77H173.505C173.329 117.494 172.79 116.46 171.888 115.668C170.986 114.876 169.864 114.48 168.522 114.48ZM187.643 111.18C190.239 111.18 192.219 111.807 193.583 113.061C194.969 114.293 195.662 116.163 195.662 118.671V129H191.768V126.855C191.262 127.625 190.536 128.219 189.59 128.637C188.666 129.033 187.544 129.231 186.224 129.231C184.904 129.231 183.749 129.011 182.759 128.571C181.769 128.109 180.999 127.482 180.449 126.69C179.921 125.876 179.657 124.963 179.657 123.951C179.657 122.367 180.24 121.102 181.406 120.156C182.594 119.188 184.453 118.704 186.983 118.704H191.537V118.44C191.537 117.208 191.163 116.262 190.415 115.602C189.689 114.942 188.6 114.612 187.148 114.612C186.158 114.612 185.179 114.766 184.211 115.074C183.265 115.382 182.462 115.811 181.802 116.361L180.185 113.358C181.109 112.654 182.22 112.115 183.518 111.741C184.816 111.367 186.191 111.18 187.643 111.18ZM187.082 126.228C188.116 126.228 189.029 125.997 189.821 125.535C190.635 125.051 191.207 124.369 191.537 123.489V121.443H187.28C184.904 121.443 183.716 122.224 183.716 123.786C183.716 124.534 184.013 125.128 184.607 125.568C185.201 126.008 186.026 126.228 187.082 126.228ZM204.883 113.952C206.071 112.104 208.161 111.18 211.153 111.18V115.107C210.801 115.041 210.482 115.008 210.196 115.008C208.59 115.008 207.336 115.481 206.434 116.427C205.532 117.351 205.081 118.693 205.081 120.453V129H200.956V111.378H204.883V113.952ZM222.576 129.231C220.75 129.231 219.111 128.846 217.659 128.076C216.207 127.306 215.074 126.239 214.26 124.875C213.446 123.489 213.039 121.927 213.039 120.189C213.039 118.451 213.446 116.9 214.26 115.536C215.074 114.172 216.196 113.105 217.626 112.335C219.078 111.565 220.728 111.18 222.576 111.18C224.314 111.18 225.832 111.532 227.13 112.236C228.45 112.94 229.44 113.952 230.1 115.272L226.932 117.12C226.426 116.306 225.788 115.701 225.018 115.305C224.27 114.887 223.445 114.678 222.543 114.678C221.003 114.678 219.727 115.184 218.715 116.196C217.703 117.186 217.197 118.517 217.197 120.189C217.197 121.861 217.692 123.203 218.682 124.215C219.694 125.205 220.981 125.7 222.543 125.7C223.445 125.7 224.27 125.502 225.018 125.106C225.788 124.688 226.426 124.072 226.932 123.258L230.1 125.106C229.418 126.426 228.417 127.449 227.097 128.175C225.799 128.879 224.292 129.231 222.576 129.231ZM243.504 111.18C245.726 111.18 247.508 111.829 248.85 113.127C250.192 114.425 250.863 116.35 250.863 118.902V129H246.738V119.43C246.738 117.89 246.375 116.735 245.649 115.965C244.923 115.173 243.889 114.777 242.547 114.777C241.029 114.777 239.83 115.239 238.95 116.163C238.07 117.065 237.63 118.374 237.63 120.09V129H233.505V104.514H237.63V113.424C238.312 112.698 239.148 112.148 240.138 111.774C241.15 111.378 242.272 111.18 243.504 111.18ZM256.096 111.378H260.221V129H256.096V111.378ZM258.175 108.474C257.427 108.474 256.8 108.243 256.294 107.781C255.788 107.297 255.535 106.703 255.535 105.999C255.535 105.295 255.788 104.712 256.294 104.25C256.8 103.766 257.427 103.524 258.175 103.524C258.923 103.524 259.55 103.755 260.056 104.217C260.562 104.657 260.815 105.218 260.815 105.9C260.815 106.626 260.562 107.242 260.056 107.748C259.572 108.232 258.945 108.474 258.175 108.474ZM275.634 111.18C277.856 111.18 279.638 111.829 280.98 113.127C282.322 114.425 282.993 116.35 282.993 118.902V129H278.868V119.43C278.868 117.89 278.505 116.735 277.779 115.965C277.053 115.173 276.019 114.777 274.677 114.777C273.159 114.777 271.96 115.239 271.08 116.163C270.2 117.065 269.76 118.374 269.76 120.09V129H265.635V111.378H269.562V113.655C270.244 112.841 271.102 112.225 272.136 111.807C273.17 111.389 274.336 111.18 275.634 111.18ZM305.877 111.378V126.327C305.877 132.531 302.709 135.633 296.373 135.633C294.679 135.633 293.073 135.413 291.555 134.973C290.037 134.555 288.783 133.939 287.793 133.125L289.641 130.023C290.411 130.661 291.379 131.167 292.545 131.541C293.733 131.937 294.932 132.135 296.142 132.135C298.078 132.135 299.497 131.695 300.399 130.815C301.301 129.935 301.752 128.593 301.752 126.789V125.865C301.048 126.635 300.19 127.218 299.178 127.614C298.166 128.01 297.055 128.208 295.845 128.208C294.173 128.208 292.655 127.856 291.291 127.152C289.949 126.426 288.882 125.414 288.09 124.116C287.32 122.818 286.935 121.333 286.935 119.661C286.935 117.989 287.32 116.515 288.09 115.239C288.882 113.941 289.949 112.94 291.291 112.236C292.655 111.532 294.173 111.18 295.845 111.18C297.121 111.18 298.276 111.389 299.31 111.807C300.366 112.225 301.246 112.863 301.95 113.721V111.378H305.877ZM296.472 124.71C298.034 124.71 299.31 124.248 300.3 123.324C301.312 122.378 301.818 121.157 301.818 119.661C301.818 118.187 301.312 116.988 300.3 116.064C299.31 115.14 298.034 114.678 296.472 114.678C294.888 114.678 293.59 115.14 292.578 116.064C291.588 116.988 291.093 118.187 291.093 119.661C291.093 121.157 291.588 122.378 292.578 123.324C293.59 124.248 294.888 124.71 296.472 124.71Z" fill="white"/>
</g>
<defs>
<clipPath id="clip0">
<rect width="323" height="157" fill="white"/>
</clipPath>
</defs>
</svg>
