<svg width="24" height="24" viewBox="0 0 24 24" fill="none" xmlns="http://www.w3.org/2000/svg">
<path opacity="0.4" d="M22 11.0048C22 16.5137 17.5116 21 12 21C6.48842 21 2 16.5137 2 11.0048C2 5.48625 6.48842 1 12 1C17.5116 1 22 5.48625 22 11.0048Z" fill="#200E32"/>
<path d="M16 11.0049C16 11.2576 15.9205 11.5113 15.7614 11.7145C15.7315 11.7543 15.5923 11.9186 15.483 12.0255L15.4233 12.0838C14.5881 12.9694 12.5099 14.3011 11.456 14.7278C11.456 14.7375 10.8295 14.9913 10.5312 15H10.4915C10.0341 15 9.60653 14.7482 9.38778 14.34C9.26847 14.1154 9.15909 13.4642 9.14915 13.4554C9.05966 12.8712 9 11.9769 9 10.9951C9 9.96574 9.05966 9.03159 9.16903 8.45808C9.16903 8.44836 9.27841 7.92345 9.34801 7.74848C9.45739 7.49672 9.65625 7.2819 9.90483 7.14581C10.1037 7.04957 10.3125 7 10.5312 7C10.7599 7.01069 11.1875 7.15553 11.3565 7.22357C12.4702 7.65128 14.598 9.05103 15.4134 9.90644C15.5526 10.0425 15.7017 10.2087 15.7415 10.2467C15.9105 10.4605 16 10.723 16 11.0049Z" fill="#200E32"/>
</svg>
