<svg width="334" height="154" viewBox="0 0 334 154" fill="none" xmlns="http://www.w3.org/2000/svg">
<g clip-path="url(#clip0)">
<path d="M272.717 152.15C270.031 149.883 268.4 146.302 268.828 142.816C269.256 139.33 271.905 136.126 275.342 135.385C278.778 134.645 282.696 136.694 283.74 140.048C284.314 133.582 284.976 126.846 288.417 121.339C291.533 116.353 296.929 112.786 302.778 112.148C308.627 111.509 314.785 113.92 318.432 118.532C322.08 123.143 322.973 129.848 320.418 135.143C318.537 139.043 315.069 141.946 311.436 144.307C299.698 151.874 285.618 154.951 271.789 152.972" fill="#FF6584"/>
<path d="M312.649 114.054C307.823 117.981 303.396 122.372 299.431 127.166C293.227 134.642 288.206 143.024 284.544 152.02C284.276 152.676 285.342 152.962 285.607 152.313C291.599 137.692 301.165 124.806 313.429 114.833C313.98 114.385 313.195 113.609 312.649 114.054Z" fill="white"/>
<path d="M175.431 153.702H160.201C159.687 153.701 159.194 153.497 158.83 153.133C158.466 152.77 158.261 152.277 158.26 151.763V120.141C158.261 119.627 158.466 119.134 158.83 118.771C159.194 118.407 159.687 118.203 160.201 118.202H175.431C175.945 118.203 176.439 118.407 176.802 118.771C177.166 119.134 177.371 119.627 177.372 120.141V151.763C177.371 152.277 177.166 152.77 176.802 153.133C176.439 153.497 175.945 153.701 175.431 153.702Z" fill="white"/>
<path d="M211.563 154H196.333C195.74 153.999 195.17 153.763 194.751 153.344C194.331 152.925 194.095 152.356 194.094 151.763V90.3096C194.095 89.7164 194.331 89.1477 194.751 88.7283C195.17 88.3089 195.74 88.0729 196.333 88.0723H211.563C212.156 88.0729 212.726 88.3089 213.145 88.7283C213.565 89.1477 213.802 89.7164 213.802 90.3096V151.763C213.802 152.356 213.565 152.925 213.145 153.344C212.726 153.763 212.156 153.999 211.563 154ZM196.333 88.6689C195.898 88.6694 195.481 88.8424 195.173 89.15C194.865 89.4576 194.692 89.8746 194.691 90.3096V151.763C194.692 152.198 194.865 152.615 195.173 152.922C195.481 153.23 195.898 153.403 196.333 153.403H211.563C211.998 153.403 212.415 153.23 212.723 152.922C213.031 152.615 213.204 152.198 213.205 151.763V90.3096C213.204 89.8746 213.031 89.4576 212.723 89.15C212.415 88.8424 211.998 88.6694 211.563 88.6689H196.333Z" fill="white"/>
<path d="M247.694 154H232.465C231.872 153.999 231.302 153.763 230.882 153.344C230.463 152.925 230.226 152.356 230.226 151.763V51.2302C230.226 50.637 230.463 50.0683 230.882 49.6489C231.302 49.2294 231.872 48.9935 232.465 48.9929H247.694C248.288 48.9935 248.857 49.2294 249.277 49.6489C249.697 50.0683 249.933 50.637 249.934 51.2302V151.763C249.933 152.356 249.697 152.925 249.277 153.344C248.857 153.763 248.288 153.999 247.694 154ZM232.465 49.5895C232.03 49.59 231.612 49.763 231.305 50.0706C230.997 50.3782 230.823 50.7952 230.823 51.2302V151.763C230.823 152.198 230.997 152.615 231.305 152.922C231.612 153.23 232.03 153.403 232.465 153.403H247.694C248.13 153.403 248.547 153.23 248.855 152.922C249.163 152.615 249.336 152.198 249.337 151.763V51.2302C249.336 50.7952 249.163 50.3782 248.855 50.0706C248.547 49.763 248.13 49.59 247.694 49.5895H232.465Z" fill="#C4C4C4"/>
<path d="M284.163 153.851H268.934C268.42 153.85 267.926 153.646 267.563 153.282C267.199 152.919 266.994 152.426 266.993 151.912V10.2119C266.994 9.69779 267.199 9.20493 267.563 8.84142C267.926 8.4779 268.42 8.27342 268.934 8.27283H284.163C284.678 8.27342 285.171 8.4779 285.535 8.84142C285.899 9.20493 286.104 9.69779 286.104 10.2119V151.912C286.104 152.426 285.899 152.919 285.535 153.282C285.171 153.646 284.678 153.85 284.163 153.851Z" fill="white"/>
<path d="M189.448 66.333C189.503 65.8979 189.462 65.4561 189.328 65.0385C189.194 64.6209 188.97 64.2378 188.671 63.9162C188.373 63.5946 188.007 63.3422 187.601 63.1769C187.194 63.0116 186.756 62.9374 186.318 62.9594L181.01 53.2316L179.815 57.408L183.452 66.3234C183.538 67.0568 183.89 67.7332 184.442 68.2244C184.994 68.7156 185.707 68.9876 186.446 68.9888C187.185 68.99 187.899 68.7203 188.452 68.2308C189.005 67.7413 189.36 67.0661 189.448 66.333V66.333Z" fill="#A0616A"/>
<path d="M148.549 104.743L151.506 106.899L161.239 96.5317L156.875 93.3489L148.549 104.743Z" fill="#A0616A"/>
<path d="M155.204 113.801L145.911 107.023L148.532 103.436L154.235 107.595C155.187 108.29 155.824 109.334 156.006 110.497C156.187 111.661 155.899 112.849 155.204 113.801L155.204 113.801Z" fill="#2F2E41"/>
<path d="M164.192 116.157L167.853 116.157L169.594 102.05L164.191 102.051L164.192 116.157Z" fill="#A0616A"/>
<path d="M174.913 119.553L163.408 119.553L163.407 115.112L170.468 115.112C171.647 115.112 172.777 115.58 173.611 116.413C174.445 117.245 174.913 118.375 174.913 119.553Z" fill="#2F2E41"/>
<path d="M175.187 61.1369C175.187 61.1369 176.978 78.4392 172.499 90.3719L169.215 113.044H163.541L164.138 86.1955L162.048 62.3302C162.048 62.3302 166.228 51.5908 175.187 61.1369Z" fill="#2F2E41"/>
<path d="M155.777 62.3301L161.749 82.9139L150.103 101.409L155.926 106.332L169.214 85.5987L165.333 60.2419L155.777 62.3301Z" fill="#2F2E41"/>
<path d="M171.007 16.1729C175.058 16.1729 178.342 12.8925 178.342 8.84598C178.342 4.79943 175.058 1.51904 171.007 1.51904C166.957 1.51904 163.673 4.79943 163.673 8.84598C163.673 12.8925 166.957 16.1729 171.007 16.1729Z" fill="#A0616A"/>
<path d="M164.885 18.9254C164.885 18.9254 169.364 15.9422 174.44 22.5051L175.784 63.8219C175.784 63.8219 171.902 58.4522 163.84 63.5236C155.777 68.5949 153.985 62.9269 153.985 62.9269C153.985 62.9269 148.312 20.2678 164.885 18.9254Z" fill="#6C63FF"/>
<path d="M174.079 22.4009C175.367 22.4705 176.584 23.0135 177.496 23.9255C178.407 24.8375 178.949 26.0541 179.017 27.3411L179.965 45.3262L186.235 62.3302L182.652 65.3134L171.006 45.0279L168.622 28.3541C168.513 27.5899 168.574 26.811 168.802 26.0734C169.031 25.3358 169.42 24.658 169.942 24.0887C170.463 23.5193 171.105 23.0727 171.821 22.7808C172.536 22.489 173.307 22.3593 174.079 22.4009Z" fill="#6C63FF"/>
<path d="M165.618 14.3419C166.817 15.6179 169.044 14.9329 169.2 13.1898C169.213 13.0545 169.212 12.9183 169.198 12.7831C169.117 12.011 168.67 11.31 168.777 10.4948C168.802 10.2919 168.877 10.0985 168.997 9.93301C169.953 8.65485 172.196 10.5047 173.097 9.34762C173.65 8.63812 173 7.52105 173.425 6.72806C173.985 5.68145 175.643 6.19775 176.683 5.62457C177.841 4.98684 177.772 3.21291 177.01 2.13392C176.081 0.818049 174.452 0.115887 172.843 0.0146834C171.234 -0.0865202 169.637 0.347928 168.135 0.932645C166.428 1.59699 164.736 2.51515 163.686 4.01413C162.409 5.83706 162.286 8.2878 162.925 10.4194C163.313 11.716 164.639 13.3 165.618 14.3419Z" fill="#2F2E41"/>
<path d="M329.649 154H138.351C138.258 154 119.066 154.094 119 154C118.934 153.906 119 153.132 119 153C119 152.868 138.037 153.241 138.103 153.147C138.168 153.053 118.907 153 119 153L329.649 153C329.742 153 329.832 153.053 329.897 153.147C329.963 153.241 330 153.368 330 153.5C330 153.632 329.963 153.759 329.897 153.853C329.832 153.947 329.742 154 329.649 154Z" fill="#F7F7F7"/>
<path d="M19.4857 49.33C17.7037 49.33 15.9767 49.077 14.3047 48.571C12.6547 48.065 11.3457 47.394 10.3777 46.558L11.8627 43.225C12.8087 43.973 13.9637 44.589 15.3277 45.073C16.7137 45.535 18.0997 45.766 19.4857 45.766C21.2017 45.766 22.4777 45.491 23.3137 44.941C24.1717 44.391 24.6007 43.665 24.6007 42.763C24.6007 42.103 24.3587 41.564 23.8747 41.146C23.4127 40.706 22.8187 40.365 22.0927 40.123C21.3667 39.881 20.3767 39.606 19.1227 39.298C17.3627 38.88 15.9327 38.462 14.8327 38.044C13.7547 37.626 12.8197 36.977 12.0277 36.097C11.2577 35.195 10.8727 33.985 10.8727 32.467C10.8727 31.191 11.2137 30.036 11.8957 29.002C12.5997 27.946 13.6447 27.11 15.0307 26.494C16.4387 25.878 18.1547 25.57 20.1787 25.57C21.5867 25.57 22.9727 25.746 24.3367 26.098C25.7007 26.45 26.8777 26.956 27.8677 27.616L26.5147 30.949C25.5027 30.355 24.4467 29.904 23.3467 29.596C22.2467 29.288 21.1797 29.134 20.1457 29.134C18.4517 29.134 17.1867 29.42 16.3507 29.992C15.5367 30.564 15.1297 31.323 15.1297 32.269C15.1297 32.929 15.3607 33.468 15.8227 33.886C16.3067 34.304 16.9117 34.634 17.6377 34.876C18.3637 35.118 19.3537 35.393 20.6077 35.701C22.3237 36.097 23.7317 36.515 24.8317 36.955C25.9317 37.373 26.8667 38.022 27.6367 38.902C28.4287 39.782 28.8247 40.97 28.8247 42.466C28.8247 43.742 28.4727 44.897 27.7687 45.931C27.0867 46.965 26.0417 47.79 24.6337 48.406C23.2257 49.022 21.5097 49.33 19.4857 49.33ZM40.6026 49.231C38.8206 49.231 37.2146 48.846 35.7846 48.076C34.3546 47.306 33.2326 46.239 32.4186 44.875C31.6266 43.489 31.2306 41.927 31.2306 40.189C31.2306 38.451 31.6266 36.9 32.4186 35.536C33.2326 34.172 34.3546 33.105 35.7846 32.335C37.2146 31.565 38.8206 31.18 40.6026 31.18C42.4066 31.18 44.0236 31.565 45.4536 32.335C46.8836 33.105 47.9946 34.172 48.7866 35.536C49.6006 36.9 50.0076 38.451 50.0076 40.189C50.0076 41.927 49.6006 43.489 48.7866 44.875C47.9946 46.239 46.8836 47.306 45.4536 48.076C44.0236 48.846 42.4066 49.231 40.6026 49.231ZM40.6026 45.7C42.1206 45.7 43.3746 45.194 44.3646 44.182C45.3546 43.17 45.8496 41.839 45.8496 40.189C45.8496 38.539 45.3546 37.208 44.3646 36.196C43.3746 35.184 42.1206 34.678 40.6026 34.678C39.0846 34.678 37.8306 35.184 36.8406 36.196C35.8726 37.208 35.3886 38.539 35.3886 40.189C35.3886 41.839 35.8726 43.17 36.8406 44.182C37.8306 45.194 39.0846 45.7 40.6026 45.7ZM57.8791 33.952C59.0671 32.104 61.1571 31.18 64.1491 31.18V35.107C63.7971 35.041 63.4781 35.008 63.1921 35.008C61.5861 35.008 60.3321 35.481 59.4301 36.427C58.5281 37.351 58.0771 38.693 58.0771 40.453V49H53.9521V31.378H57.8791V33.952ZM78.8859 48.043C78.4019 48.439 77.8079 48.736 77.1039 48.934C76.4219 49.132 75.6959 49.231 74.9259 49.231C72.9899 49.231 71.4939 48.725 70.4379 47.713C69.3819 46.701 68.8539 45.227 68.8539 43.291V34.81H65.9499V31.51H68.8539V27.484H72.9789V31.51H77.6979V34.81H72.9789V43.192C72.9789 44.05 73.1879 44.71 73.6059 45.172C74.0239 45.612 74.6289 45.832 75.4209 45.832C76.3449 45.832 77.1149 45.59 77.7309 45.106L78.8859 48.043ZM82.2792 31.378H86.4042V49H82.2792V31.378ZM84.3582 28.474C83.6102 28.474 82.9832 28.243 82.4772 27.781C81.9712 27.297 81.7182 26.703 81.7182 25.999C81.7182 25.295 81.9712 24.712 82.4772 24.25C82.9832 23.766 83.6102 23.524 84.3582 23.524C85.1062 23.524 85.7332 23.755 86.2392 24.217C86.7452 24.657 86.9982 25.218 86.9982 25.9C86.9982 26.626 86.7452 27.242 86.2392 27.748C85.7552 28.232 85.1282 28.474 84.3582 28.474ZM101.817 31.18C104.039 31.18 105.821 31.829 107.163 33.127C108.505 34.425 109.176 36.35 109.176 38.902V49H105.051V39.43C105.051 37.89 104.688 36.735 103.962 35.965C103.236 35.173 102.202 34.777 100.86 34.777C99.3423 34.777 98.1433 35.239 97.2633 36.163C96.3833 37.065 95.9433 38.374 95.9433 40.09V49H91.8183V31.378H95.7453V33.655C96.4273 32.841 97.2853 32.225 98.3193 31.807C99.3533 31.389 100.519 31.18 101.817 31.18ZM132.06 31.378V46.327C132.06 52.531 128.892 55.633 122.556 55.633C120.862 55.633 119.256 55.413 117.738 54.973C116.22 54.555 114.966 53.939 113.976 53.125L115.824 50.023C116.594 50.661 117.562 51.167 118.728 51.541C119.916 51.937 121.115 52.135 122.325 52.135C124.261 52.135 125.68 51.695 126.582 50.815C127.484 49.935 127.935 48.593 127.935 46.789V45.865C127.231 46.635 126.373 47.218 125.361 47.614C124.349 48.01 123.238 48.208 122.028 48.208C120.356 48.208 118.838 47.856 117.474 47.152C116.132 46.426 115.065 45.414 114.273 44.116C113.503 42.818 113.118 41.333 113.118 39.661C113.118 37.989 113.503 36.515 114.273 35.239C115.065 33.941 116.132 32.94 117.474 32.236C118.838 31.532 120.356 31.18 122.028 31.18C123.304 31.18 124.459 31.389 125.493 31.807C126.549 32.225 127.429 32.863 128.133 33.721V31.378H132.06ZM122.655 44.71C124.217 44.71 125.493 44.248 126.483 43.324C127.495 42.378 128.001 41.157 128.001 39.661C128.001 38.187 127.495 36.988 126.483 36.064C125.493 35.14 124.217 34.678 122.655 34.678C121.071 34.678 119.773 35.14 118.761 36.064C117.771 36.988 117.276 38.187 117.276 39.661C117.276 41.157 117.771 42.378 118.761 43.324C119.773 44.248 121.071 44.71 122.655 44.71Z" fill="white"/>
</g>
<defs>
<clipPath id="clip0">
<rect width="334" height="154" fill="white"/>
</clipPath>
</defs>
</svg>
